<?xml version="1.0" standalone="no"?>
<!DOCTYPE svg PUBLIC "-//W3C//DTD SVG 20010904//EN"
 "http://www.w3.org/TR/2001/REC-SVG-20010904/DTD/svg10.dtd">
<svg version="1.0" xmlns="http://www.w3.org/2000/svg"
 width="220.000000pt" height="220.000000pt" viewBox="0 0 220.000000 220.000000"
 preserveAspectRatio="xMidYMid meet">

<g transform="translate(0.000000,220.000000) scale(0.100000,-0.100000)"
fill="#000000" stroke="none">
<path d="M955 2094 c-11 -2 -51 -11 -88 -20 -216 -49 -435 -203 -561 -392
-108 -162 -157 -327 -157 -522 0 -210 43 -362 149 -525 129 -198 307 -330 539
-402 82 -25 101 -27 263 -27 161 0 182 3 263 27 347 106 600 378 672 722 21
103 21 285 0 390 -73 354 -333 627 -690 728 -52 14 -109 20 -220 23 -82 1
-159 1 -170 -2z m268 -319 c95 -20 177 -67 245 -140 84 -89 106 -140 106 -245
1 -142 -41 -205 -205 -308 -65 -41 -71 -49 -119 -152 -6 -12 -34 -16 -145 -18
-93 -2 -142 1 -151 9 -17 14 -18 87 -2 142 17 57 104 147 180 187 35 18 75 44
90 58 54 50 45 123 -20 159 -53 30 -93 36 -147 22 -39 -10 -61 -25 -115 -81
-36 -37 -73 -68 -81 -68 -16 0 -173 114 -198 143 -11 15 -9 23 19 67 44 68
138 153 206 185 109 52 220 65 337 40z m25 -957 c8 -8 12 -56 12 -150 0 -126
-2 -138 -19 -148 -26 -13 -256 -13 -282 0 -17 10 -19 22 -19 148 0 94 4 142
12 150 17 17 279 17 296 0z"/>
</g>
</svg>
